<?xml version="1.0" encoding="utf-8"?>
<svg width="160.08398px" height="36.306885px" viewBox="0 0 160.08398 36.306885" version="1.1" xmlns:xlink="http://www.w3.org/1999/xlink" xmlns="http://www.w3.org/2000/svg">
  <defs>
    <path d="M75 0L75 0L75 28.77L0 28.77L0 0L75 0Z" id="path_1" />
    <clipPath id="clip_1">
      <use xlink:href="#path_1" clip-rule="evenodd" fill-rule="evenodd" />
    </clipPath>
  </defs>
  <g id="Logo-Copier">
    <g id="home-logo Copier 3" clip-path="url(#clip_1)" transform="translate(0 3.1086426)">
      <path d="M75 0L75 0L75 28.77L0 28.77L0 0L75 0Z" id="home-logo-Copier-3" fill="none" stroke="none" />
      <path d="M6.90857 23.6841L5.93143 25.1237L0 26.4433L7.69714 26.4433L16.9543 13.333L30.4286 26.4604L17.2971 8.08887L6.90857 23.6841ZM62.9836 23.6499L60.4807 20.5309L60.4807 10.5054L54.7207 7.26636L54.9779 13.3845L44.795 0L30.875 26.2549L30.995 26.4434L44.7779 4.81568L61.5093 26.4434L75.0007 26.4434L62.9836 23.6499Z" id="Forme" fill="#000000" fill-rule="evenodd" stroke="none" />
      <path d="M41.1261 16.9663L41.0918 20.5652L45.7547 20.5995L45.8061 14.2585C43.8861 14.2928 41.5375 15.3725 41.1261 16.9663M46.3542 14.2756L46.3027 20.5994L50.9656 20.6337L50.9999 17.0348C50.7256 15.5267 48.5485 14.4641 46.3542 14.2756M41.0738 22.93L41.0566 26.5118L45.7195 26.5632L45.7538 21.6447L41.0909 21.5933L41.0738 22.93ZM46.2676 26.5633L50.9304 26.5976L50.9476 23.0329L50.9647 21.6962L46.3019 21.6448L46.2676 26.5633ZM14.4156 19.5711L14.3984 22.176L17.8099 22.2103L17.8442 17.6174C16.4384 17.6346 14.707 18.4058 14.4156 19.5711M18.2569 17.6348L18.2227 22.2105L21.6341 22.2448L21.6512 19.6399C21.4627 18.5259 19.8684 17.7547 18.2569 17.6348M14.3824 23.8899L14.3652 26.4777L17.7767 26.512L17.8109 22.9474L14.3824 22.9131L14.3824 23.8899ZM18.1875 26.5119L21.5989 26.5462L21.6332 23.9584L21.6332 22.9815L18.2046 22.9473L18.1875 26.5119ZM29.6231 14.1214L18.0859 8.56885L29.9659 24.5925L29.6231 14.1214ZM30.3086 14.2585L30.48 24.7467L43.7829 0.616943L30.3086 14.2585Z" id="Forme" fill="#29ABE2" fill-rule="evenodd" stroke="none" />
    </g>
    <g id="Immo" transform="translate(77.083984 0)">
      <g id="Immo" fill="#29ABE2">
        <path d="M5.28409 7.24432L5.28409 29.0625L2.64205 29.0625L2.64205 7.24432L5.28409 7.24432ZM10.2273 29.0625L10.2273 12.6989L12.6563 12.6989L12.6563 15.2557L12.8693 15.2557Q13.3807 13.9453 14.5206 13.2156Q15.6605 12.4858 17.2585 12.4858Q18.8778 12.4858 19.9592 13.2156Q21.0405 13.9453 21.6477 15.2557L21.8182 15.2557Q22.4467 13.9879 23.7038 13.2369Q24.9609 12.4858 26.7188 12.4858Q28.9134 12.4858 30.3089 13.8548Q31.7045 15.2237 31.7045 18.1108L31.7045 29.0625L29.1903 29.0625L29.1903 18.1108Q29.1903 16.2997 28.1996 15.522Q27.2088 14.7443 25.8665 14.7443Q24.1406 14.7443 23.1925 15.783Q22.2443 16.8217 22.2443 18.4091L22.2443 29.0625L19.6875 29.0625L19.6875 17.8551Q19.6875 16.4595 18.782 15.6019Q17.8764 14.7443 16.4489 14.7443Q15.4688 14.7443 14.6218 15.2663Q13.7749 15.7884 13.2582 16.7099Q12.7415 17.6314 12.7415 18.8352L12.7415 29.0625L10.2273 29.0625ZM36.3068 29.0625L36.3068 12.6989L38.7358 12.6989L38.7358 15.2557L38.9489 15.2557Q39.4602 13.9453 40.6001 13.2156Q41.7401 12.4858 43.3381 12.4858Q44.9574 12.4858 46.0387 13.2156Q47.12 13.9453 47.7273 15.2557L47.8977 15.2557Q48.5263 13.9879 49.7834 13.2369Q51.0405 12.4858 52.7983 12.4858Q54.9929 12.4858 56.3885 13.8548Q57.7841 15.2237 57.7841 18.1108L57.7841 29.0625L55.2699 29.0625L55.2699 18.1108Q55.2699 16.2997 54.2791 15.522Q53.2884 14.7443 51.946 14.7443Q50.2202 14.7443 49.272 15.783Q48.3239 16.8217 48.3239 18.4091L48.3239 29.0625L45.767 29.0625L45.767 17.8551Q45.767 16.4595 44.8615 15.6019Q43.956 14.7443 42.5284 14.7443Q41.5483 14.7443 40.7014 15.2663Q39.8544 15.7884 39.3377 16.7099Q38.821 17.6314 38.821 18.8352L38.821 29.0625L36.3068 29.0625ZM69.0341 29.4034Q66.8182 29.4034 65.1509 28.3487Q63.4837 27.294 62.5515 25.3977Q61.6193 23.5014 61.6193 20.9659Q61.6193 18.4091 62.5515 16.5021Q63.4837 14.5952 65.1509 13.5405Q66.8182 12.4858 69.0341 12.4858Q71.25 12.4858 72.9173 13.5405Q74.5845 14.5952 75.5167 16.5021Q76.4489 18.4091 76.4489 20.9659Q76.4489 23.5014 75.5167 25.3977Q74.5845 27.294 72.9173 28.3487Q71.25 29.4034 69.0341 29.4034ZM69.0341 27.1449Q70.7173 27.1449 71.804 26.282Q72.8906 25.419 73.4126 24.0128Q73.9347 22.6065 73.9347 20.9659Q73.9347 19.3253 73.4126 17.9084Q72.8906 16.4915 71.804 15.6179Q70.7173 14.7443 69.0341 14.7443Q67.3509 14.7443 66.2642 15.6179Q65.1776 16.4915 64.6555 17.9084Q64.1335 19.3253 64.1335 20.9659Q64.1335 22.6065 64.6555 24.0128Q65.1776 25.419 66.2642 26.282Q67.3509 27.1449 69.0341 27.1449Z" />
      </g>
    </g>
  </g>
</svg>